<svg width="50" height="50" viewBox="0 0 50 50" fill="none" xmlns="http://www.w3.org/2000/svg">
<path fill-rule="evenodd" clip-rule="evenodd" d="M15.3027 8.36922C21.7483 7.65557 28.2529 7.65557 34.6985 8.36922C38.2673 8.76922 41.1464 11.5796 41.5652 15.1609C42.329 21.6984 42.329 28.3026 41.5652 34.8401C41.1464 38.4213 38.2673 41.2317 34.6985 41.6317C28.2529 42.3454 21.7483 42.3454 15.3027 41.6317C11.7339 41.2317 8.85476 38.4213 8.43601 34.8401C7.67237 28.3033 7.67237 21.6998 8.43601 15.163C8.64782 13.4231 9.44097 11.8058 10.6869 10.5731C11.9329 9.34036 13.5586 8.56452 15.3006 8.37131M25.0006 14.5984C25.415 14.5984 25.8124 14.763 26.1054 15.056C26.3985 15.3491 26.5631 15.7465 26.5631 16.1609V23.438H33.8402C34.2546 23.438 34.652 23.6026 34.945 23.8956C35.2381 24.1886 35.4027 24.5861 35.4027 25.0005C35.4027 25.4149 35.2381 25.8123 34.945 26.1053C34.652 26.3984 34.2546 26.563 33.8402 26.563H26.5631V33.8401C26.5631 34.2545 26.3985 34.6519 26.1054 34.9449C25.8124 35.2379 25.415 35.4026 25.0006 35.4026C24.5862 35.4026 24.1888 35.2379 23.8957 34.9449C23.6027 34.6519 23.4381 34.2545 23.4381 33.8401V26.563H16.161C15.7466 26.563 15.3492 26.3984 15.0562 26.1053C14.7631 25.8123 14.5985 25.4149 14.5985 25.0005C14.5985 24.5861 14.7631 24.1886 15.0562 23.8956C15.3492 23.6026 15.7466 23.438 16.161 23.438H23.4381V16.1609C23.4381 15.7465 23.6027 15.3491 23.8957 15.056C24.1888 14.763 24.5862 14.5984 25.0006 14.5984Z" fill="#A25555"/>
</svg>
