<svg width="50" height="50" viewBox="0 0 50 50" fill="none" xmlns="http://www.w3.org/2000/svg">
<path d="M16 18.865V31C16 33.3869 16.9482 35.6761 18.636 37.364C20.3239 39.0518 22.6131 40 25 40C27.3869 40 29.6761 39.0518 31.364 37.364C33.0518 35.6761 34 33.3869 34 31V16C34 14.4087 33.3679 12.8826 32.2426 11.7574C31.1174 10.6321 29.5913 10 28 10C26.4087 10 24.8826 10.6321 23.7574 11.7574C22.6321 12.8826 22 14.4087 22 16V29.773C22 30.167 22.0776 30.5571 22.2284 30.9211C22.3791 31.285 22.6001 31.6157 22.8787 31.8943C23.1573 32.1729 23.488 32.3939 23.852 32.5446C24.2159 32.6954 24.606 32.773 25 32.773C25.7956 32.773 26.5587 32.4569 27.1213 31.8943C27.6839 31.3317 28 30.5686 28 29.773V19" stroke="#331F1F" stroke-width="3" stroke-linecap="round" stroke-linejoin="round"/>
</svg>
