<svg width="50" height="50" viewBox="0 0 50 50" fill="none" xmlns="http://www.w3.org/2000/svg">
<path d="M25 35.853L18.4 38.7154C17.3524 39.166 16.3571 39.0801 15.4143 38.4578C14.4714 37.8355 14 36.954 14 35.8133V15.1804C14 14.3058 14.308 13.5573 14.924 12.935C15.54 12.3127 16.2796 12.0011 17.1429 12H32.8571C33.7214 12 34.4616 12.3117 35.0776 12.935C35.6936 13.5584 36.001 14.3069 36 15.1804V35.8133C36 36.9529 35.5286 37.8344 34.5857 38.4578C33.6429 39.0811 32.6476 39.167 31.6 38.7154L25 35.853ZM25 32.3546L32.8571 35.7735V15.1804H17.1429V35.7735L25 32.3546ZM25 15.1804H17.1429H32.8571H25Z" fill="#331F1F"/>
</svg>
