<svg width="25" height="25" viewBox="0 0 25 25" fill="none" xmlns="http://www.w3.org/2000/svg">
<path fill-rule="evenodd" clip-rule="evenodd" d="M12.5142 15.8651L20.9334 24.2746C21.3801 24.7208 21.986 24.9715 22.6178 24.9715C23.2496 24.9715 23.8555 24.7208 24.3023 24.2746C24.749 23.8284 25 23.2231 25 22.5921C25 21.961 24.749 21.3558 24.3023 20.9095L15.88 12.5L24.3007 4.09048C24.5218 3.86952 24.6972 3.60723 24.8168 3.31858C24.9364 3.02993 24.9979 2.72058 24.9979 2.40817C24.9978 2.09577 24.9361 1.78644 24.8163 1.49785C24.6966 1.20925 24.5211 0.947044 24.2999 0.726194C24.0787 0.505344 23.8161 0.330177 23.5271 0.210694C23.2381 0.0912107 22.9284 0.0297512 22.6157 0.0298248C22.3029 0.0298984 21.9932 0.0915034 21.7043 0.211123C21.4154 0.330742 21.1529 0.506033 20.9318 0.726988L12.5142 9.13651L4.09512 0.726988C3.87555 0.499696 3.61286 0.318359 3.32237 0.193558C3.03189 0.0687578 2.71943 0.00299223 2.40323 9.97531e-05C2.08703 -0.00279273 1.77342 0.0572453 1.48069 0.176711C1.18797 0.296177 0.921999 0.472677 0.698296 0.695914C0.474594 0.919151 0.297641 1.18465 0.177763 1.47693C0.057885 1.76921 -0.00251726 2.0824 8.03599e-05 2.39825C0.00267798 2.71409 0.0682232 3.02625 0.192892 3.31652C0.317561 3.60679 0.498857 3.86936 0.726201 4.08889L9.1485 12.5L0.727789 20.9111C0.500445 21.1306 0.31915 21.3932 0.194481 21.6835C0.0698115 21.9737 0.00426548 22.2859 0.00166786 22.6017C-0.000929759 22.9176 0.0594725 23.2308 0.17935 23.5231C0.299228 23.8153 0.476181 24.0808 0.699884 24.3041C0.923586 24.5273 1.18956 24.7038 1.48228 24.8233C1.775 24.9428 2.08862 25.0028 2.40482 24.9999C2.72102 24.997 3.03348 24.9312 3.32396 24.8064C3.61444 24.6816 3.87713 24.5003 4.09671 24.273L12.5142 15.8651Z" fill="#331F1F"/>
</svg>
