<svg width="100" height="100" viewBox="0 0 100 100" fill="none" xmlns="http://www.w3.org/2000/svg">
<path d="M40.8797 13.5C24.041 13.5 10 25.0663 10 39.7169C10 47.2119 14.107 53.7445 19.9402 58.5129C19.5605 61.0457 18.5295 63.4368 16.9479 65.4526C16.3022 66.2799 15.6265 67.0834 14.9222 67.8615C14.5579 68.2448 14.2341 68.6644 13.9557 69.1138C13.7797 69.4006 13.5048 69.7214 13.3782 70.3691C13.2516 71.0168 13.4246 72.0747 13.9557 72.8736L14.3417 73.549L15.1137 73.9346C17.8156 75.2824 20.7338 75.0449 23.4141 74.3201C26.0914 73.5922 28.6668 72.3462 31.1341 71.0415C33.6013 69.7368 35.942 68.3766 37.7917 67.3804C38.0511 67.2416 38.2179 67.2076 38.468 67.0904C43.3377 73.7773 52.2558 78.2712 62.2052 78.2712C62.3009 78.2835 62.3905 78.2712 62.4955 78.2712C66.5098 78.2712 79.4793 91.5153 87.1992 86.2719C87.508 85.0413 80.4119 81.9539 80.0567 72.778C86.0999 68.5123 90 62.1678 90 55.1386C90 44.7382 81.7366 36.1452 70.7002 33.0671C67.2077 21.7167 55.0658 13.5 40.8797 13.5ZM40.8797 19.6687C54.9207 19.6687 65.5834 29.0759 65.5834 39.7169C65.5834 50.3579 54.9207 59.7651 40.8797 59.7651C38.3723 59.7651 36.9333 60.7891 34.8952 61.8871C32.8571 62.9852 30.5196 64.3423 28.2375 65.5483C26.2612 66.5908 24.3776 67.3927 22.6421 67.9571C24.3313 65.5205 26.0945 62.3159 26.4033 57.8374L26.5021 56.1009L25.0538 55.043C19.5511 51.1907 16.1759 45.6481 16.1759 39.7169C16.1759 29.0759 26.8387 19.6687 40.8797 19.6687Z" fill="#EAD0D0"/>
</svg>
