<svg width="50" height="50" viewBox="0 0 50 50" fill="none" xmlns="http://www.w3.org/2000/svg">
<path d="M23.845 13.3125H14.6322C13.9341 13.3125 13.2646 13.5898 12.771 14.0834C12.2773 14.577 12 15.2465 12 15.9446V34.369C12 35.067 12.2773 35.7365 12.771 36.2301C13.2646 36.7237 13.9341 37.001 14.6322 37.001H33.0578C33.7559 37.001 34.4254 36.7237 34.919 36.2301C35.4127 35.7365 35.69 35.067 35.69 34.369V25.1568" stroke="black" stroke-width="3" stroke-linecap="round" stroke-linejoin="round"/>
<path d="M32.2341 12.8177C32.7577 12.2941 33.4678 12 34.2083 12C34.9488 12 35.6589 12.2941 36.1825 12.8177C36.706 13.3412 37.0002 14.0513 37.0002 14.7917C37.0002 15.5321 36.706 16.2422 36.1825 16.7658L24.3204 28.6284C24.0078 28.9407 23.6218 29.1692 23.1977 29.293L19.4165 30.3985C19.3033 30.4315 19.1832 30.4335 19.069 30.4042C18.9547 30.375 18.8504 30.3155 18.767 30.2321C18.6835 30.1487 18.6241 30.0444 18.5948 29.9301C18.5655 29.8158 18.5675 29.6958 18.6005 29.5826L19.7061 25.8016C19.8305 25.3779 20.0595 24.9923 20.372 24.6804L32.2341 12.8177Z" stroke="black" stroke-width="3" stroke-linecap="round" stroke-linejoin="round"/>
</svg>
