<svg width="28" height="36" viewBox="0 0 28 36" fill="none" xmlns="http://www.w3.org/2000/svg">
<path d="M17.7976 16.8778V24.6667C17.7976 25.2778 17.297 25.7778 16.6852 25.7778H3.31479C2.703 25.7778 2.20245 25.2778 2.20245 24.6667V11.3333C2.20245 10.7222 2.703 10.2222 3.31479 10.2222H11.1012C11.713 10.2222 12.2136 9.72222 12.2136 9.11111C12.2136 8.5 11.713 8 11.1012 8H2.22469C1.00111 8 0 9 0 10.2222V25.7778C0 27 1.00111 28 2.22469 28H17.7753C18.3653 28 18.9312 27.7659 19.3484 27.3491C19.7656 26.9324 20 26.3671 20 25.7778V16.8778C20 16.2667 19.5106 15.7778 18.8988 15.7778C18.287 15.7778 17.7976 16.2667 17.7976 16.8778ZM11.3793 16.6111L10.5006 14.6667C10.4563 14.5697 10.3851 14.4874 10.2953 14.4298C10.2056 14.3721 10.1011 14.3414 9.99444 14.3414C9.88773 14.3414 9.78328 14.3721 9.69354 14.4298C9.6038 14.4874 9.53256 14.5697 9.48832 14.6667L8.60957 16.6111L6.65184 17.4889C6.55473 17.5331 6.47241 17.6042 6.41468 17.6939C6.35695 17.7835 6.32626 17.8879 6.32626 17.9944C6.32626 18.101 6.35695 18.2054 6.41468 18.295C6.47241 18.3846 6.55473 18.4558 6.65184 18.5L8.59844 19.3778L9.4772 21.3333C9.52144 21.4303 9.59268 21.5126 9.68242 21.5702C9.77216 21.6279 9.87661 21.6586 9.98332 21.6586C10.09 21.6586 10.1945 21.6279 10.2842 21.5702C10.374 21.5126 10.4452 21.4303 10.4894 21.3333L11.3682 19.3889L13.3259 18.5111C13.423 18.4669 13.5053 18.3958 13.5631 18.3061C13.6208 18.2165 13.6515 18.1121 13.6515 18.0056C13.6515 17.899 13.6208 17.7946 13.5631 17.705C13.5053 17.6154 13.423 17.5442 13.3259 17.5L11.3793 16.6111ZM16.5962 11.4L15.9288 9.93333C15.7842 9.61111 15.317 9.61111 15.1613 9.93333L14.4939 11.4L13.0256 12.0667C12.703 12.2111 12.703 12.6778 13.0256 12.8333L14.4939 13.5L15.1613 14.9667C15.3059 15.2889 15.7731 15.2889 15.9288 14.9667L16.5962 13.5L18.0645 12.8333C18.3871 12.6889 18.3871 12.2222 18.0645 12.0667L16.5962 11.4Z" fill="#331F1F"/>
</svg>
