<svg width="72" height="72" viewBox="0 0 72 72" fill="none" xmlns="http://www.w3.org/2000/svg">
<path fill-rule="evenodd" clip-rule="evenodd" d="M60.0005 9C61.5918 9 63.118 9.63214 64.2432 10.7574C65.3684 11.8826 66.0005 13.4087 66.0005 15V57C66.0005 58.5913 65.3684 60.1174 64.2432 61.2426C63.118 62.3679 61.5918 63 60.0005 63H12.0005C10.4092 63 8.8831 62.3679 7.75788 61.2426C6.63266 60.1174 6.00052 58.5913 6.00052 57V39C6.00052 38.2043 6.31659 37.4413 6.8792 36.8787C7.44181 36.3161 8.20487 36 9.00052 36C9.79617 36 10.5592 36.3161 11.1218 36.8787C11.6845 37.4413 12.0005 38.2043 12.0005 39V45.3L26.9855 30.318C27.3338 29.9697 27.7472 29.6934 28.2022 29.5048C28.6573 29.3163 29.145 29.2193 29.6375 29.2193C30.1301 29.2193 30.6178 29.3163 31.0728 29.5048C31.5279 29.6934 31.9413 29.9697 32.2895 30.318L44.4845 42.516L48.1985 38.802C48.5468 38.4537 48.9602 38.1774 49.4152 37.9888C49.8703 37.8003 50.358 37.7033 50.8505 37.7033C51.3431 37.7033 51.8308 37.8003 52.2858 37.9888C52.7409 38.1774 53.1543 38.4537 53.5025 38.802L60.0005 45.303V15H36.0005C35.2049 15 34.4418 14.6839 33.8792 14.1213C33.3166 13.5587 33.0005 12.7956 33.0005 12C33.0005 11.2044 33.3166 10.4413 33.8792 9.87868C34.4418 9.31607 35.2049 9 36.0005 9H60.0005ZM29.6375 36.15L12.0005 53.79V57H60.0005V53.787L50.8505 44.637L48.7295 46.758L49.3505 47.379C49.897 47.9448 50.1994 48.7026 50.1926 49.4892C50.1857 50.2758 49.8702 51.0282 49.314 51.5845C48.7578 52.1407 48.0053 52.4562 47.2187 52.463C46.4321 52.4699 45.6743 52.1675 45.1085 51.621L29.6375 36.15ZM15.0005 6C15.5618 6 16.1118 6.15743 16.588 6.45441C17.0642 6.75139 17.4476 7.17601 17.6945 7.68L17.8385 8.031L18.2285 9.165C18.6401 10.3716 19.3034 11.4769 20.1743 12.4078C21.0452 13.3388 22.104 14.0741 23.2805 14.565L23.8355 14.775L24.9695 15.162C25.5309 15.3539 26.0228 15.708 26.383 16.1795C26.7432 16.6509 26.9555 17.2186 26.9931 17.8107C27.0306 18.4029 26.8918 18.9928 26.5941 19.506C26.2964 20.0192 25.8532 20.4327 25.3205 20.694L24.9695 20.838L23.8355 21.228C22.629 21.6396 21.5236 22.3028 20.5927 23.1738C19.6618 24.0447 18.9265 25.1035 18.4355 26.28L18.2255 26.835L17.8385 27.969C17.6466 28.5304 17.2925 29.0223 16.8211 29.3825C16.3496 29.7427 15.7819 29.955 15.1898 29.9925C14.5977 30.0301 14.0077 29.8913 13.4945 29.5936C12.9813 29.2959 12.5679 28.8527 12.3065 28.32L12.1625 27.969L11.7725 26.835C11.3609 25.6284 10.6977 24.5231 9.82675 23.5922C8.9558 22.6612 7.89702 21.9259 6.72052 21.435L6.16552 21.225L5.03152 20.838C4.47011 20.6461 3.97822 20.292 3.61803 19.8205C3.25784 19.3491 3.04554 18.7814 3.00797 18.1893C2.97041 17.5971 3.10925 17.0072 3.40696 16.494C3.70467 15.9808 4.14787 15.5673 4.68052 15.306L5.03152 15.162L6.16552 14.772C7.37207 14.3604 8.47742 13.6972 9.40835 12.8262C10.3393 11.9553 11.0746 10.8965 11.5655 9.72L11.7755 9.165L12.1625 8.031C12.3647 7.43876 12.7469 6.92455 13.2558 6.56037C13.7647 6.19618 14.3747 6.00025 15.0005 6ZM46.5005 21C47.694 21 48.8386 21.4741 49.6825 22.318C50.5264 23.1619 51.0005 24.3065 51.0005 25.5C51.0005 26.6935 50.5264 27.8381 49.6825 28.682C48.8386 29.5259 47.694 30 46.5005 30C45.3071 30 44.1625 29.5259 43.3185 28.682C42.4746 27.8381 42.0005 26.6935 42.0005 25.5C42.0005 24.3065 42.4746 23.1619 43.3185 22.318C44.1625 21.4741 45.3071 21 46.5005 21ZM15.0005 15.588C14.2909 16.4811 13.4816 17.2903 12.5885 18C13.4845 18.71 14.2885 19.514 15.0005 20.412C15.7105 19.516 16.5145 18.712 17.4125 18C16.5194 17.2903 15.7102 16.4811 15.0005 15.588Z" fill="white"/>
</svg>
