<svg width="27" height="36" viewBox="0 0 27 36" fill="none" xmlns="http://www.w3.org/2000/svg">
<path fill-rule="evenodd" clip-rule="evenodd" d="M10.0007 10.8008C9.38782 10.8008 8.78098 10.9094 8.2148 11.1205C7.64861 11.3316 7.13416 11.6409 6.70082 12.0309C6.26748 12.4209 5.92373 12.8839 5.68921 13.3935C5.45469 13.9031 5.33398 14.4492 5.33398 15.0008C5.33398 15.5523 5.45469 16.0985 5.68921 16.6081C5.92373 17.1176 6.26748 17.5806 6.70082 17.9706C7.13416 18.3606 7.64861 18.67 8.2148 18.8811C8.78098 19.0921 9.38782 19.2008 10.0007 19.2008C11.2383 19.2008 12.4253 18.7583 13.3005 17.9706C14.1757 17.183 14.6673 16.1147 14.6673 15.0008C14.6673 13.8869 14.1757 12.8186 13.3005 12.0309C12.4253 11.2433 11.2383 10.8008 10.0007 10.8008ZM8.00065 15.0008C8.00065 14.5234 8.21136 14.0656 8.58644 13.728C8.96151 13.3904 9.47022 13.2008 10.0007 13.2008C10.5311 13.2008 11.0398 13.3904 11.4149 13.728C11.7899 14.0656 12.0007 14.5234 12.0007 15.0008C12.0007 15.4782 11.7899 15.936 11.4149 16.2736C11.0398 16.6111 10.5311 16.8008 10.0007 16.8008C9.47022 16.8008 8.96151 16.6111 8.58644 16.2736C8.21136 15.936 8.00065 15.4782 8.00065 15.0008Z" fill="#331F1F"/>
<path fill-rule="evenodd" clip-rule="evenodd" d="M10 6C4.43733 6 0 10.1796 0 15.2544C0 17.8812 1.61867 20.5212 3.42 22.7976C4.65067 24.3528 6.1 25.8912 7.36267 27.2304C7.94933 27.8544 8.496 28.434 8.96267 28.9536C9.51639 29.5711 10.4836 29.5711 11.0373 28.9536C11.504 28.434 12.0507 27.8544 12.6373 27.2304C13.9 25.8912 15.3493 24.3528 16.58 22.7976C18.3813 20.52 20 17.88 20 15.2544C20 10.1796 15.5627 6 10 6ZM2.66667 15.2544C2.66667 11.4324 5.98933 8.4 10 8.4C14.0107 8.4 17.3333 11.4324 17.3333 15.2544C17.3333 17.0772 16.1667 19.1832 14.408 21.4044C13.2387 22.8816 11.9347 24.2652 10.712 25.5624C10.3246 25.97 9.67357 25.9718 9.288 25.5624C8.06533 24.2664 6.76133 22.8816 5.592 21.4044C3.83467 19.1844 2.66667 17.0772 2.66667 15.2544Z" fill="#331F1F"/>
</svg>
