<svg width="26" height="20" viewBox="0 0 26 20" fill="none" xmlns="http://www.w3.org/2000/svg">
<path d="M0.086889 1.8525L11.4272 12.9475C11.7626 13.2759 12.2108 13.4709 12.6847 13.4947C13.1587 13.5185 13.6249 13.3694 13.9929 13.0763L14.1386 12.9475L25.4712 1.86C25.5079 1.9975 25.5326 2.13792 25.5453 2.28125L25.5556 2.5V17.5C25.5558 18.1307 25.3123 18.7382 24.8739 19.2007C24.4355 19.6632 23.8346 19.9464 23.1917 19.9938L23 20H2.55556C1.91082 20.0002 1.28983 19.762 0.817078 19.3331C0.344324 18.9043 0.0547442 18.3164 0.00638904 17.6875L0 17.5V2.5C0 2.35 0.0127777 2.20417 0.0383333 2.0625L0.086889 1.8525ZM23 0C23.155 0 23.3062 0.0129168 23.4536 0.0387502L23.6708 0.0875002L12.7842 10.7375L1.89367 0.0849998C2.03507 0.0474998 2.17989 0.0224999 2.32811 0.00999987L2.55556 0H23Z" fill="#A25555"/>
</svg>
