<svg width="50" height="50" viewBox="0 0 50 50" fill="none" xmlns="http://www.w3.org/2000/svg">
<path d="M18.5556 25.5C18.5556 26.163 18.2629 26.7989 17.742 27.2678C17.221 27.7366 16.5145 28 15.7778 28C15.0411 28 14.3345 27.7366 13.8136 27.2678C13.2927 26.7989 13 26.163 13 25.5C13 24.837 13.2927 24.2011 13.8136 23.7322C14.3345 23.2634 15.0411 23 15.7778 23C16.5145 23 17.221 23.2634 17.742 23.7322C18.2629 24.2011 18.5556 24.837 18.5556 25.5ZM28.2778 25.5C28.2778 26.163 27.9851 26.7989 27.4642 27.2678C26.9432 27.7366 26.2367 28 25.5 28C24.7633 28 24.0567 27.7366 23.5358 27.2678C23.0149 26.7989 22.7222 26.163 22.7222 25.5C22.7222 24.837 23.0149 24.2011 23.5358 23.7322C24.0567 23.2634 24.7633 23 25.5 23C26.2367 23 26.9432 23.2634 27.4642 23.7322C27.9851 24.2011 28.2778 24.837 28.2778 25.5ZM38 25.5C38 26.163 37.7073 26.7989 37.1864 27.2678C36.6655 27.7366 35.9589 28 35.2222 28C34.4855 28 33.779 27.7366 33.258 27.2678C32.7371 26.7989 32.4444 26.163 32.4444 25.5C32.4444 24.837 32.7371 24.2011 33.258 23.7322C33.779 23.2634 34.4855 23 35.2222 23C35.9589 23 36.6655 23.2634 37.1864 23.7322C37.7073 24.2011 38 24.837 38 25.5Z" fill="#331F1F"/>
</svg>
