<svg width="50" height="50" viewBox="0 0 50 50" fill="none" xmlns="http://www.w3.org/2000/svg">
<path d="M0 16C0 7.16344 7.16344 0 16 0H34C42.8366 0 50 7.16344 50 16V34C50 42.8366 42.8366 50 34 50H16C7.16344 50 0 42.8366 0 34V16Z" fill="#A25555"/>
<path d="M25.2229 34.2371H35.1623C35.5494 34.2588 35.9355 34.181 36.284 34.0111C36.6324 33.8412 36.9315 33.5849 37.1528 33.2665C37.3741 32.9482 37.5102 32.5786 37.548 32.1927C37.5859 31.8069 37.5243 31.4179 37.3691 31.0626C36.8437 29.4746 34.7492 27.5699 34.7492 25.6959C34.7492 21.5362 34.7492 20.4416 32.7001 17.9954C32.0369 17.208 31.2147 16.5698 30.2874 16.1228L29.1446 15.5682C28.9529 15.4524 28.7874 15.2978 28.659 15.1143C28.5306 14.9308 28.4419 14.7225 28.3988 14.5027C28.2846 13.7619 27.8928 13.0922 27.3031 12.6295C26.7133 12.1669 25.9696 11.9458 25.2229 12.0113C24.4896 11.9673 23.7663 12.1981 23.1941 12.6588C22.622 13.1195 22.2421 13.7769 22.1286 14.5027C22.0772 14.7301 21.9764 14.9434 21.8334 15.1275C21.6904 15.3116 21.5087 15.4621 21.3011 15.5682L20.1583 16.1228C19.2315 16.57 18.4098 17.2082 17.7471 17.9954C15.6994 20.4416 15.6994 21.5362 15.6994 25.6959C15.6994 27.5699 13.6998 29.2834 13.1744 30.9663C12.8577 31.9836 12.6825 34.2371 15.3345 34.2371H25.2229Z" stroke="white" stroke-width="3" stroke-linecap="round" stroke-linejoin="round"/>
<path d="M29.9855 34.2363C29.998 34.8652 29.8834 35.4901 29.6484 36.0735C29.4135 36.657 29.0632 37.187 28.6184 37.6318C28.1737 38.0765 27.6437 38.4268 27.0602 38.6618C26.4768 38.8967 25.8519 39.0113 25.223 38.9988C24.594 39.0121 23.9688 38.8981 23.3851 38.6634C22.8013 38.4288 22.2711 38.0785 21.8263 37.6335C21.3815 37.1886 21.0313 36.6582 20.7968 36.0744C20.5624 35.4906 20.4485 34.8653 20.462 34.2363" stroke="white" stroke-width="3" stroke-linecap="round" stroke-linejoin="round"/>
</svg>
