<svg width="50" height="50" viewBox="0 0 50 50" fill="none" xmlns="http://www.w3.org/2000/svg">
<path d="M21.5837 17.0896C23.104 14.3632 23.8636 13 25 13C26.1364 13 26.896 14.3632 28.4163 17.0896L28.8099 17.7952C29.2419 18.5704 29.4579 18.958 29.7939 19.2136C30.1299 19.4692 30.5499 19.564 31.3898 19.7536L32.153 19.9264C35.105 20.5948 36.5797 20.9285 36.9313 22.0577C37.2817 23.1857 36.2761 24.3629 34.2638 26.7161L33.743 27.3245C33.1718 27.9929 32.885 28.3277 32.7566 28.7405C32.6282 29.1545 32.6714 29.6009 32.7578 30.4925L32.837 31.3049C33.1406 34.4453 33.293 36.0149 32.3738 36.7122C31.4546 37.4094 30.0723 36.7734 27.3099 35.5013L26.5936 35.1725C25.8088 34.8101 25.4164 34.6301 25 34.6301C24.5836 34.6301 24.1912 34.8101 23.4064 35.1725L22.6913 35.5013C19.9277 36.7734 18.5454 37.4094 17.6274 36.7134C16.707 36.0149 16.8594 34.4453 17.163 31.3049L17.2422 30.4937C17.3286 29.6009 17.3718 29.1545 17.2422 28.7417C17.115 28.3277 16.8282 27.9929 16.257 27.3257L15.7362 26.7161C13.7239 24.3641 12.7183 23.1869 13.0687 22.0577C13.4191 20.9285 14.8962 20.5936 17.8482 19.9264L18.6113 19.7536C19.4501 19.564 19.8689 19.4692 20.2061 19.2136C20.5433 18.958 20.7581 18.5704 21.1901 17.7952L21.5837 17.0896Z" fill="#A25555" stroke="#A25555" stroke-width="4"/>
</svg>
