<svg width="50" height="50" viewBox="0 0 50 50" fill="none" xmlns="http://www.w3.org/2000/svg">
<path d="M15 35L19.8255 30.1745M19.8255 30.1745C19.0001 29.3491 18.3453 28.3692 17.8986 27.2907C17.4519 26.2122 17.222 25.0563 17.222 23.889C17.222 22.7217 17.4519 21.5658 17.8986 20.4873C18.3453 19.4089 19.0001 18.429 19.8255 17.6035C20.6509 16.7781 21.6308 16.1234 22.7093 15.6766C23.7878 15.2299 24.9437 15 26.111 15C27.2783 15 28.4342 15.2299 29.5127 15.6766C30.5911 16.1234 31.571 16.7781 32.3965 17.6035C34.0635 19.2705 35 21.5315 35 23.889C35 26.2465 34.0635 28.5075 32.3965 30.1745C30.7295 31.8415 28.4685 32.778 26.111 32.778C23.7535 32.778 21.4925 31.8415 19.8255 30.1745Z" stroke="#331F1F" stroke-width="2" stroke-linecap="round" stroke-linejoin="round"/>
</svg>
