<svg width="50" height="50" viewBox="0 0 50 50" fill="none" xmlns="http://www.w3.org/2000/svg">
<rect width="50" height="50" rx="20" transform="matrix(0 1 1 0 0 0)" fill="#A25555"/>
<path fill-rule="evenodd" clip-rule="evenodd" d="M13.027 17.6208C12.6648 14.3879 16.0125 12.0138 18.97 13.4072L35.6094 21.2442C38.7969 22.7443 38.7969 27.2543 35.6094 28.7544L18.97 36.5928C16.0125 37.9862 12.6662 35.6121 13.027 32.3792L13.6957 26.3844H25.005C25.3745 26.3844 25.7288 26.2385 25.9901 25.9787C26.2514 25.719 26.3981 25.3667 26.3981 24.9993C26.3981 24.6319 26.2514 24.2796 25.9901 24.0199C25.7288 23.7601 25.3745 23.6142 25.005 23.6142H13.6971L13.027 17.6208Z" fill="white"/>
</svg>
