<svg width="28" height="27" viewBox="0 0 28 27" fill="none" xmlns="http://www.w3.org/2000/svg">
<path d="M24.1912 9.19079L23.7335 8.9357L23.5922 8.85567C23.2513 8.65107 22.9641 8.36815 22.7544 8.03036C22.7319 7.9966 22.7119 7.96034 22.6719 7.89031C22.4023 7.45757 22.2714 6.95276 22.2967 6.44353L22.3042 5.91209C22.3192 5.06177 22.3267 4.63411 22.2067 4.25147C22.1005 3.91102 21.9227 3.59723 21.6852 3.33114C21.4176 3.03102 21.0463 2.81595 20.3022 2.38829L19.6845 2.03191C18.9442 1.6055 18.5728 1.39167 18.1789 1.31039C17.8309 1.23838 17.4716 1.24136 17.1248 1.31914C16.7334 1.40668 16.367 1.62676 15.6355 2.06442L15.6318 2.06692L15.1891 2.33077C15.1191 2.37328 15.0828 2.39329 15.0478 2.4133C14.7002 2.60712 14.3125 2.71341 13.9136 2.72591C13.8736 2.72841 13.8323 2.72841 13.7511 2.72841L13.5885 2.72716C13.1895 2.71445 12.7993 2.6064 12.4506 2.41205C12.4156 2.39329 12.3818 2.37203 12.3118 2.32952L11.8654 2.06192C11.1289 1.61926 10.76 1.39917 10.3661 1.31039C10.018 1.23248 9.65731 1.22992 9.30818 1.30289C8.91304 1.38542 8.5429 1.6005 7.80138 2.03066L7.79763 2.03191L7.1874 2.38579L7.18115 2.39079C6.44588 2.81595 6.07699 3.03102 5.8119 3.32988C5.57565 3.59548 5.39874 3.90837 5.29295 4.24772C5.17416 4.63161 5.18041 5.05927 5.19542 5.91459L5.20417 6.44478C5.20417 6.52606 5.20792 6.56608 5.20667 6.60484C5.2002 7.05916 5.07008 7.50313 4.83028 7.88906C4.78902 7.95909 4.77026 7.9941 4.749 8.02661C4.53817 8.36695 4.2487 8.6517 3.90494 8.85692L3.76489 8.9357L3.31348 9.18579C2.5607 9.60219 2.18431 9.81102 1.91171 10.1086C1.66935 10.371 1.486 10.6823 1.37401 11.0215C1.24897 11.4054 1.24897 11.8343 1.25022 12.6946L1.25272 13.3986C1.25397 14.2527 1.25647 14.6791 1.38277 15.0605C1.49429 15.3975 1.67631 15.707 1.91671 15.9683C2.18931 16.2634 2.56195 16.471 3.30847 16.8861L3.75614 17.135C3.83242 17.1775 3.87118 17.1975 3.90745 17.22C4.29931 17.4549 4.61933 17.7927 4.83279 18.1966L4.91657 18.3467C5.12778 18.7455 5.22716 19.194 5.20417 19.6446L5.19542 20.1536C5.18041 21.0114 5.17416 21.4416 5.29421 21.8254C5.40049 22.1656 5.57806 22.4794 5.81565 22.7458C6.08325 23.0459 6.45588 23.2597 7.19866 23.6886L7.81638 24.045C8.55791 24.4714 8.92804 24.6852 9.32194 24.7665C9.66995 24.8385 10.0293 24.8356 10.3761 24.7578C10.7687 24.6702 11.1351 24.4502 11.8691 24.01L12.3118 23.7449L12.4531 23.6624C12.8007 23.4698 13.1884 23.3623 13.5873 23.3498L13.7498 23.3485H13.9124C14.31 23.361 14.7002 23.4698 15.0503 23.6636L15.1653 23.7324L15.6355 24.015C16.3733 24.4577 16.7409 24.6777 17.1348 24.7653C17.4827 24.844 17.8434 24.8474 18.1927 24.7753C18.5866 24.6927 18.9592 24.4764 19.7008 24.0463L20.3197 23.6874C21.055 23.2597 21.4239 23.0459 21.689 22.747C21.9266 22.4807 22.1016 22.1681 22.2079 21.8292C22.3267 21.4478 22.3205 21.0239 22.3055 20.1811L22.2955 19.6309V19.4721C22.3013 19.0175 22.431 18.573 22.6706 18.1866L22.7519 18.0491C22.9627 17.7087 23.2522 17.424 23.5959 17.2187L23.7335 17.1425L23.736 17.1412L24.1874 16.8911C24.9402 16.4735 25.3166 16.2659 25.5904 15.9683C25.833 15.7057 26.0156 15.3931 26.1269 15.0555C26.2519 14.6741 26.2519 14.2464 26.2494 13.3961L26.2469 12.6783C26.2457 11.8243 26.2444 11.3966 26.1181 11.0152C26.0061 10.6785 25.8236 10.3694 25.5829 10.1086C25.3116 9.81352 24.9389 9.60594 24.1937 9.19204L24.1912 9.19079Z" stroke="#331F1F" stroke-width="2.5" stroke-linecap="round" stroke-linejoin="round"/>
<path d="M8.74805 13.0389C8.74805 14.3655 9.27502 15.6378 10.2131 16.5758C11.1511 17.5138 12.4233 18.0408 13.7499 18.0408C15.0765 18.0408 16.3487 17.5138 17.2867 16.5758C18.2248 15.6378 18.7517 14.3655 18.7517 13.0389C18.7517 11.7124 18.2248 10.4401 17.2867 9.50211C16.3487 8.56409 15.0765 8.03711 13.7499 8.03711C12.4233 8.03711 11.1511 8.56409 10.2131 9.50211C9.27502 10.4401 8.74805 11.7124 8.74805 13.0389Z" stroke="#331F1F" stroke-width="2.5" stroke-linecap="round" stroke-linejoin="round"/>
</svg>
