<svg width="28" height="28" viewBox="0 0 28 28" fill="none" xmlns="http://www.w3.org/2000/svg">
<path d="M10.5856 6.08963C12.106 3.36321 12.8656 2 14.002 2C15.1383 2 15.8979 3.36321 17.4183 6.08963L17.8119 6.79523C18.2439 7.57044 18.4598 7.95804 18.7958 8.21364C19.1318 8.46924 19.5518 8.56404 20.3918 8.75364L21.155 8.92644C24.1069 9.59485 25.5817 9.92845 25.9333 11.0577C26.2837 12.1857 25.2781 13.3629 23.2657 15.7161L22.7449 16.3245C22.1738 16.9929 21.887 17.3277 21.7586 17.7405C21.6302 18.1545 21.6734 18.6009 21.7598 19.4925L21.839 20.3049C22.1426 23.4453 22.295 25.0149 21.3758 25.7122C20.4566 26.4094 19.0742 25.7734 16.3119 24.5013L15.5955 24.1725C14.8107 23.8101 14.4183 23.6301 14.002 23.6301C13.5856 23.6301 13.1932 23.8101 12.4084 24.1725L11.6932 24.5013C8.92967 25.7734 7.5473 26.4094 6.62933 25.7134C5.70895 25.0149 5.86134 23.4453 6.16494 20.3049L6.24413 19.4937C6.33053 18.6009 6.37373 18.1545 6.24413 17.7417C6.11694 17.3277 5.83015 16.9929 5.25896 16.3257L4.73817 15.7161C2.72582 13.3641 1.72024 12.1869 2.07063 11.0577C2.42103 9.92845 3.89819 9.59365 6.85012 8.92644L7.6133 8.75364C8.45208 8.56404 8.87087 8.46924 9.20807 8.21364C9.54526 7.95804 9.76005 7.57044 10.192 6.79523L10.5856 6.08963Z" fill="#331F1F" stroke="#331F1F" stroke-width="4"/>
</svg>
