<svg width="36" height="36" viewBox="0 0 36 36" fill="none" xmlns="http://www.w3.org/2000/svg">
<path d="M14.5837 10.0896C16.104 7.36321 16.8636 6 18 6C19.1364 6 19.896 7.36321 21.4163 10.0896L21.8099 10.7952C22.2419 11.5704 22.4579 11.958 22.7939 12.2136C23.1299 12.4692 23.5499 12.564 24.3898 12.7536L25.153 12.9264C28.105 13.5948 29.5797 13.9285 29.9313 15.0577C30.2817 16.1857 29.2761 17.3629 27.2638 19.7161L26.743 20.3245C26.1718 20.9929 25.885 21.3277 25.7566 21.7405C25.6282 22.1545 25.6714 22.6009 25.7578 23.4925L25.837 24.3049C26.1406 27.4453 26.293 29.0149 25.3738 29.7122C24.4546 30.4094 23.0723 29.7734 20.3099 28.5013L19.5936 28.1725C18.8088 27.8101 18.4164 27.6301 18 27.6301C17.5836 27.6301 17.1912 27.8101 16.4064 28.1725L15.6913 28.5013C12.9277 29.7734 11.5454 30.4094 10.6274 29.7134C9.70699 29.0149 9.85939 27.4453 10.163 24.3049L10.2422 23.4937C10.3286 22.6009 10.3718 22.1545 10.2422 21.7417C10.115 21.3277 9.82819 20.9929 9.25701 20.3257L8.73622 19.7161C6.72387 17.3641 5.71829 16.1869 6.06868 15.0577C6.41907 13.9285 7.89624 13.5936 10.8482 12.9264L11.6113 12.7536C12.4501 12.564 12.8689 12.4692 13.2061 12.2136C13.5433 11.958 13.7581 11.5704 14.1901 10.7952L14.5837 10.0896Z" stroke="#331F1F" stroke-width="3"/>
</svg>
