<svg width="50" height="50" viewBox="0 0 50 50" fill="none" xmlns="http://www.w3.org/2000/svg">
<path d="M13 38L20.2588 30.7412M20.2588 30.7412L26.002 36.4844C26.1699 36.652 26.3762 36.776 26.6031 36.8454C26.8299 36.9148 27.0703 36.9276 27.3032 36.8826C27.5362 36.8376 27.7545 36.7363 27.9392 36.5874C28.1239 36.4385 28.2692 36.2466 28.3626 36.0285L31.6363 28.3908C31.7114 28.2154 31.8203 28.0565 31.9568 27.9232C32.0933 27.79 32.2548 27.6849 32.4319 27.6141L37.0877 25.7514C37.3106 25.6622 37.508 25.5191 37.662 25.3349C37.816 25.1506 37.9219 24.9311 37.9703 24.6959C38.0186 24.4607 38.0079 24.2171 37.939 23.9871C37.8701 23.7571 37.7452 23.5477 37.5755 23.3778L27.6222 13.4245C27.4523 13.2548 27.2429 13.1299 27.0129 13.061C26.7829 12.9921 26.5393 12.9814 26.3041 13.0297C26.0689 13.0781 25.8494 13.184 25.6651 13.338C25.4809 13.492 25.3378 13.6894 25.2486 13.9123L23.3859 18.5681C23.3151 18.7452 23.21 18.9067 23.0768 19.0432C22.9435 19.1797 22.7846 19.2886 22.6092 19.3637L14.9715 22.6374C14.7534 22.7308 14.5615 22.8761 14.4126 23.0608C14.2637 23.2455 14.1624 23.4638 14.1174 23.6968C14.0724 23.9297 14.0852 24.1701 14.1546 24.3969C14.224 24.6238 14.348 24.8301 14.5156 24.998L20.2588 30.7412ZM37.5755 36.8826L14.1174 13.0297" stroke="#331F1F" stroke-width="3" stroke-linecap="round" stroke-linejoin="round"/>
</svg>
