<svg width="30" height="18" viewBox="0 0 30 18" fill="none" xmlns="http://www.w3.org/2000/svg">
<path d="M28.7945 17.9985H25.5097C24.2675 17.9985 23.8932 16.9823 21.6664 14.7319C19.7203 12.8376 18.8984 12.6021 18.4061 12.6021C17.7252 12.6021 17.5395 12.7911 17.5395 13.7375V16.7207C17.5395 17.5275 17.2804 18 15.1933 18C13.1684 17.8626 11.2048 17.2413 9.46426 16.1874C7.7237 15.1334 6.25597 13.6768 5.18197 11.9377C2.63275 8.73157 0.858492 4.96948 0 0.949989C0 0.452794 0.187127 0.00212003 1.12564 0.00212003H4.40756C5.25107 0.00212003 5.55479 0.381559 5.88586 1.25819C7.47932 5.99463 10.1984 10.1147 11.3025 10.1147C11.7257 10.1147 11.9099 9.92567 11.9099 8.86004V3.98113C11.7703 1.75539 10.6 1.56785 10.6 0.762451C10.6148 0.549967 10.7111 0.351681 10.8683 0.209711C11.0255 0.0677407 11.2314 -0.00672888 11.4421 0.00212003H16.601C17.3064 0.00212003 17.5395 0.356844 17.5395 1.20876V7.79442C17.5395 8.50532 17.8418 8.74083 18.0549 8.74083C18.4781 8.74083 18.8034 8.50532 19.5792 7.72318C21.2416 5.6743 22.6003 3.39222 23.6125 0.948535C23.7157 0.654818 23.9113 0.403353 24.1695 0.232674C24.4276 0.0619958 24.7341 -0.0184818 25.0419 0.00357371H28.3253C29.3098 0.00357371 29.5185 0.500769 29.3098 1.21022C28.1153 3.91178 26.6377 6.47636 24.9023 8.86004C24.5482 9.40521 24.4071 9.6887 24.9023 10.3284C25.2276 10.8256 26.3791 11.7967 27.1521 12.7198C28.2778 13.8538 29.2119 15.1651 29.9187 16.6015C30.2008 17.5261 29.7316 17.9985 28.7945 17.9985Z" fill="#A25555"/>
</svg>
