<svg width="110" height="54" viewBox="0 0 110 54" fill="none" xmlns="http://www.w3.org/2000/svg">
<path d="M24.4489 50.9091V32.9091H28.0284V35.108H28.1903C28.3494 34.7557 28.5795 34.3977 28.8807 34.0341C29.1875 33.6648 29.5852 33.358 30.0739 33.1136C30.5682 32.8636 31.1818 32.7386 31.9148 32.7386C32.8693 32.7386 33.75 32.9886 34.5568 33.4886C35.3636 33.983 36.0085 34.7301 36.4915 35.7301C36.9744 36.7244 37.2159 37.9716 37.2159 39.4716C37.2159 40.9318 36.9801 42.1648 36.5085 43.1705C36.0426 44.1705 35.4063 44.929 34.5994 45.446C33.7983 45.9574 32.9006 46.2131 31.9062 46.2131C31.2017 46.2131 30.6023 46.0966 30.108 45.8636C29.6193 45.6307 29.2188 45.3381 28.9062 44.9858C28.5938 44.6278 28.3551 44.267 28.1903 43.9034H28.0795V50.9091H24.4489ZM28.0028 39.4545C28.0028 40.233 28.1108 40.9119 28.3267 41.4915C28.5426 42.071 28.8551 42.5227 29.2642 42.8466C29.6733 43.1648 30.1705 43.3239 30.7557 43.3239C31.3466 43.3239 31.8466 43.1619 32.2557 42.8381C32.6648 42.5085 32.9744 42.054 33.1847 41.4744C33.4006 40.8892 33.5085 40.2159 33.5085 39.4545C33.5085 38.6989 33.4034 38.0341 33.1932 37.4602C32.983 36.8864 32.6733 36.4375 32.2642 36.1136C31.8551 35.7898 31.3523 35.6278 30.7557 35.6278C30.1648 35.6278 29.6648 35.7841 29.2557 36.0966C28.8523 36.4091 28.5426 36.8523 28.3267 37.4261C28.1108 38 28.0028 38.6761 28.0028 39.4545ZM50.5284 36.642L47.2045 36.8466C47.1477 36.5625 47.0256 36.3068 46.8381 36.0795C46.6506 35.8466 46.4034 35.6619 46.0966 35.5256C45.7955 35.3835 45.4347 35.3125 45.0142 35.3125C44.4517 35.3125 43.9773 35.4318 43.5909 35.6705C43.2045 35.9034 43.0114 36.2159 43.0114 36.608C43.0114 36.9205 43.1364 37.1847 43.3864 37.4006C43.6364 37.6165 44.0653 37.7898 44.6733 37.9205L47.0426 38.3977C48.3153 38.6591 49.2642 39.0795 49.8892 39.6591C50.5142 40.2386 50.8267 41 50.8267 41.9432C50.8267 42.8011 50.5739 43.554 50.0682 44.2017C49.5682 44.8494 48.8807 45.3551 48.0057 45.7188C47.1364 46.0767 46.1335 46.2557 44.9972 46.2557C43.2642 46.2557 41.8835 45.8949 40.8551 45.1733C39.8324 44.446 39.233 43.4574 39.0568 42.2074L42.6278 42.0199C42.7358 42.5483 42.9972 42.9517 43.4119 43.2301C43.8267 43.5028 44.358 43.6392 45.0057 43.6392C45.642 43.6392 46.1534 43.517 46.5398 43.2727C46.9318 43.0227 47.1307 42.7017 47.1364 42.3097C47.1307 41.9801 46.9915 41.7102 46.7188 41.5C46.446 41.2841 46.0256 41.1193 45.4574 41.0057L43.1903 40.554C41.9119 40.2983 40.9602 39.8551 40.3352 39.2244C39.7159 38.5937 39.4062 37.7898 39.4062 36.8125C39.4062 35.9716 39.6335 35.2472 40.0881 34.6392C40.5483 34.0312 41.1932 33.5625 42.0227 33.233C42.858 32.9034 43.8352 32.7386 44.9545 32.7386C46.608 32.7386 47.9091 33.0881 48.858 33.7869C49.8125 34.4858 50.3693 35.4375 50.5284 36.642ZM55.3544 50.9091C54.8942 50.9091 54.4624 50.8722 54.0589 50.7983C53.6612 50.7301 53.3317 50.642 53.0703 50.5341L53.8885 47.8239C54.3146 47.9545 54.6982 48.0256 55.0391 48.0369C55.3857 48.0483 55.6839 47.9688 55.9339 47.7983C56.1896 47.6278 56.397 47.3381 56.5561 46.929L56.7692 46.375L52.0732 32.9091H55.8913L58.6016 42.5227H58.7379L61.4737 32.9091H65.3175L60.2294 47.4148C59.9851 48.1193 59.6527 48.733 59.2322 49.2557C58.8175 49.7841 58.2919 50.1903 57.6555 50.4744C57.0192 50.7642 56.2521 50.9091 55.3544 50.9091ZM78.0675 36.642L74.7436 36.8466C74.6868 36.5625 74.5646 36.3068 74.3771 36.0795C74.1896 35.8466 73.9425 35.6619 73.6357 35.5256C73.3345 35.3835 72.9737 35.3125 72.5533 35.3125C71.9908 35.3125 71.5163 35.4318 71.13 35.6705C70.7436 35.9034 70.5504 36.2159 70.5504 36.608C70.5504 36.9205 70.6754 37.1847 70.9254 37.4006C71.1754 37.6165 71.6044 37.7898 72.2124 37.9205L74.5817 38.3977C75.8544 38.6591 76.8033 39.0795 77.4283 39.6591C78.0533 40.2386 78.3658 41 78.3658 41.9432C78.3658 42.8011 78.1129 43.554 77.6072 44.2017C77.1072 44.8494 76.4197 45.3551 75.5447 45.7188C74.6754 46.0767 73.6726 46.2557 72.5362 46.2557C70.8033 46.2557 69.4226 45.8949 68.3942 45.1733C67.3714 44.446 66.772 43.4574 66.5959 42.2074L70.1669 42.0199C70.2749 42.5483 70.5362 42.9517 70.951 43.2301C71.3658 43.5028 71.897 43.6392 72.5447 43.6392C73.1811 43.6392 73.6925 43.517 74.0788 43.2727C74.4709 43.0227 74.6697 42.7017 74.6754 42.3097C74.6697 41.9801 74.5305 41.7102 74.2578 41.5C73.9851 41.2841 73.5646 41.1193 72.9964 41.0057L70.7294 40.554C69.451 40.2983 68.4993 39.8551 67.8743 39.2244C67.255 38.5937 66.9453 37.7898 66.9453 36.8125C66.9453 35.9716 67.1726 35.2472 67.6271 34.6392C68.0874 34.0312 68.7322 33.5625 69.5618 33.233C70.397 32.9034 71.3743 32.7386 72.4936 32.7386C74.147 32.7386 75.4482 33.0881 76.397 33.7869C77.3516 34.4858 77.9084 35.4375 78.0675 36.642ZM84.2827 38.4318V46H80.652V28.5455H84.1804V35.2188H84.3338C84.6293 34.446 85.1065 33.8409 85.7656 33.4034C86.4247 32.9602 87.2514 32.7386 88.2457 32.7386C89.1548 32.7386 89.9474 32.9375 90.6236 33.3352C91.3054 33.7273 91.8338 34.2926 92.2088 35.0312C92.5895 35.7642 92.777 36.642 92.7713 37.6648V46H89.1406V38.3125C89.1463 37.5057 88.9418 36.8778 88.527 36.429C88.1179 35.9801 87.544 35.7557 86.8054 35.7557C86.3111 35.7557 85.8736 35.8608 85.4929 36.071C85.1179 36.2812 84.8224 36.5881 84.6065 36.9915C84.3963 37.3892 84.2884 37.8693 84.2827 38.4318ZM101.594 46.2557C100.248 46.2557 99.0888 45.983 98.1172 45.4375C97.1513 44.8864 96.407 44.108 95.8842 43.1023C95.3615 42.0909 95.1001 40.8949 95.1001 39.5142C95.1001 38.1676 95.3615 36.9858 95.8842 35.9688C96.407 34.9517 97.1428 34.1591 98.0916 33.5909C99.0462 33.0227 100.165 32.7386 101.45 32.7386C102.313 32.7386 103.117 32.8778 103.862 33.1562C104.612 33.429 105.265 33.8409 105.822 34.392C106.384 34.9432 106.822 35.6364 107.134 36.4716C107.447 37.3011 107.603 38.2727 107.603 39.3864V40.3835H96.549V38.1335H104.185C104.185 37.6108 104.072 37.1477 103.844 36.7443C103.617 36.3409 103.302 36.0256 102.898 35.7983C102.501 35.5653 102.038 35.4489 101.509 35.4489C100.958 35.4489 100.469 35.5767 100.043 35.8324C99.6229 36.0824 99.2933 36.4205 99.0547 36.8466C98.8161 37.267 98.6939 37.7358 98.6882 38.2528V40.392C98.6882 41.0398 98.8075 41.5994 99.0462 42.071C99.2905 42.5426 99.6342 42.9062 100.077 43.1619C100.521 43.4176 101.046 43.5455 101.654 43.5455C102.058 43.5455 102.427 43.4886 102.762 43.375C103.097 43.2614 103.384 43.0909 103.623 42.8636C103.862 42.6364 104.043 42.358 104.168 42.0284L107.526 42.25C107.356 43.0568 107.006 43.7614 106.478 44.3636C105.955 44.9602 105.279 45.4261 104.45 45.7614C103.626 46.0909 102.674 46.2557 101.594 46.2557Z" fill="white"/>
<path d="M27.5012 6H17.5061V15.9985C17.5061 22.9011 22.5053 25.9971 30 25.9971V8.49964C30 7.11912 28.8813 6 27.5012 6Z" stroke="white" stroke-width="4"/>
<path d="M7.49879 46H17.4939V36.0015C17.4939 29.0989 12.4947 26.0029 5 26.0029V43.5004C5 44.8809 6.11875 46 7.49879 46Z" stroke="white" stroke-width="4"/>
<path d="M7.51092 6.00582H17.5061V16.0044C17.5061 22.9069 12.5069 26.0029 5.01214 26.0029V8.50545C5.01214 7.12494 6.13088 6.00582 7.51092 6.00582Z" stroke="white" stroke-width="4"/>
</svg>
