<svg width="113" height="56" viewBox="0 0 113 56" fill="none" xmlns="http://www.w3.org/2000/svg">
<path d="M28.4489 53.9599V35.9599H32.0284V38.1587H32.1903C32.3494 37.8065 32.5795 37.4485 32.8807 37.0849C33.1875 36.7156 33.5852 36.4087 34.0739 36.1644C34.5682 35.9144 35.1818 35.7894 35.9148 35.7894C36.8693 35.7894 37.75 36.0394 38.5568 36.5394C39.3636 37.0337 40.0085 37.7809 40.4915 38.7809C40.9744 39.7752 41.2159 41.0224 41.2159 42.5224C41.2159 43.9826 40.9801 45.2156 40.5085 46.2212C40.0426 47.2212 39.4063 47.9798 38.5994 48.4968C37.7983 49.0082 36.9006 49.2638 35.9062 49.2638C35.2017 49.2638 34.6023 49.1474 34.108 48.9144C33.6193 48.6815 33.2188 48.3888 32.9062 48.0366C32.5938 47.6786 32.3551 47.3178 32.1903 46.9542H32.0795V53.9599H28.4489ZM32.0028 42.5053C32.0028 43.2837 32.1108 43.9627 32.3267 44.5423C32.5426 45.1218 32.8551 45.5735 33.2642 45.8974C33.6733 46.2156 34.1705 46.3746 34.7557 46.3746C35.3466 46.3746 35.8466 46.2127 36.2557 45.8888C36.6648 45.5593 36.9744 45.1048 37.1847 44.5252C37.4006 43.94 37.5085 43.2667 37.5085 42.5053C37.5085 41.7496 37.4034 41.0849 37.1932 40.511C36.983 39.9371 36.6733 39.4883 36.2642 39.1644C35.8551 38.8406 35.3523 38.6786 34.7557 38.6786C34.1648 38.6786 33.6648 38.8349 33.2557 39.1474C32.8523 39.4599 32.5426 39.9031 32.3267 40.4769C32.1108 41.0508 32.0028 41.7269 32.0028 42.5053ZM54.5284 39.6928L51.2045 39.8974C51.1477 39.6133 51.0256 39.3576 50.8381 39.1303C50.6506 38.8974 50.4034 38.7127 50.0966 38.5763C49.7955 38.4343 49.4347 38.3633 49.0142 38.3633C48.4517 38.3633 47.9773 38.4826 47.5909 38.7212C47.2045 38.9542 47.0114 39.2667 47.0114 39.6587C47.0114 39.9712 47.1364 40.2354 47.3864 40.4513C47.6364 40.6673 48.0653 40.8406 48.6733 40.9712L51.0426 41.4485C52.3153 41.7099 53.2642 42.1303 53.8892 42.7099C54.5142 43.2894 54.8267 44.0508 54.8267 44.994C54.8267 45.8519 54.5739 46.6048 54.0682 47.2525C53.5682 47.9002 52.8807 48.4059 52.0057 48.7695C51.1364 49.1275 50.1335 49.3065 48.9972 49.3065C47.2642 49.3065 45.8835 48.9457 44.8551 48.2241C43.8324 47.4968 43.233 46.5082 43.0568 45.2582L46.6278 45.0707C46.7358 45.5991 46.9972 46.0025 47.4119 46.2809C47.8267 46.5536 48.358 46.69 49.0057 46.69C49.642 46.69 50.1534 46.5678 50.5398 46.3235C50.9318 46.0735 51.1307 45.7525 51.1364 45.3604C51.1307 45.0309 50.9915 44.761 50.7188 44.5508C50.446 44.3349 50.0256 44.1701 49.4574 44.0565L47.1903 43.6048C45.9119 43.3491 44.9602 42.9059 44.3352 42.2752C43.7159 41.6445 43.4062 40.8406 43.4062 39.8633C43.4062 39.0224 43.6335 38.2979 44.0881 37.69C44.5483 37.082 45.1932 36.6133 46.0227 36.2837C46.858 35.9542 47.8352 35.7894 48.9545 35.7894C50.608 35.7894 51.9091 36.1388 52.858 36.8377C53.8125 37.5366 54.3693 38.4883 54.5284 39.6928ZM59.3544 53.9599C58.8942 53.9599 58.4624 53.9229 58.0589 53.8491C57.6612 53.7809 57.3317 53.6928 57.0703 53.5849L57.8885 50.8746C58.3146 51.0053 58.6982 51.0763 59.0391 51.0877C59.3857 51.0991 59.6839 51.0195 59.9339 50.8491C60.1896 50.6786 60.397 50.3888 60.5561 49.9798L60.7692 49.4258L56.0732 35.9599H59.8913L62.6016 45.5735H62.7379L65.4737 35.9599H69.3175L64.2294 50.4656C63.9851 51.1701 63.6527 51.7837 63.2322 52.3065C62.8175 52.8349 62.2919 53.2411 61.6555 53.5252C61.0192 53.815 60.2521 53.9599 59.3544 53.9599ZM82.0675 39.6928L78.7436 39.8974C78.6868 39.6133 78.5646 39.3576 78.3771 39.1303C78.1896 38.8974 77.9425 38.7127 77.6357 38.5763C77.3345 38.4343 76.9737 38.3633 76.5533 38.3633C75.9908 38.3633 75.5163 38.4826 75.13 38.7212C74.7436 38.9542 74.5504 39.2667 74.5504 39.6587C74.5504 39.9712 74.6754 40.2354 74.9254 40.4513C75.1754 40.6673 75.6044 40.8406 76.2124 40.9712L78.5817 41.4485C79.8544 41.7099 80.8033 42.1303 81.4283 42.7099C82.0533 43.2894 82.3658 44.0508 82.3658 44.994C82.3658 45.8519 82.1129 46.6048 81.6072 47.2525C81.1072 47.9002 80.4197 48.4059 79.5447 48.7695C78.6754 49.1275 77.6726 49.3065 76.5362 49.3065C74.8033 49.3065 73.4226 48.9457 72.3942 48.2241C71.3714 47.4968 70.772 46.5082 70.5959 45.2582L74.1669 45.0707C74.2749 45.5991 74.5362 46.0025 74.951 46.2809C75.3658 46.5536 75.897 46.69 76.5447 46.69C77.1811 46.69 77.6925 46.5678 78.0788 46.3235C78.4709 46.0735 78.6697 45.7525 78.6754 45.3604C78.6697 45.0309 78.5305 44.761 78.2578 44.5508C77.9851 44.3349 77.5646 44.1701 76.9964 44.0565L74.7294 43.6048C73.451 43.3491 72.4993 42.9059 71.8743 42.2752C71.255 41.6445 70.9453 40.8406 70.9453 39.8633C70.9453 39.0224 71.1726 38.2979 71.6271 37.69C72.0874 37.082 72.7322 36.6133 73.5618 36.2837C74.397 35.9542 75.3743 35.7894 76.4936 35.7894C78.147 35.7894 79.4482 36.1388 80.397 36.8377C81.3516 37.5366 81.9084 38.4883 82.0675 39.6928ZM88.2827 41.4826V49.0508H84.652V31.5962H88.1804V38.2695H88.3338C88.6293 37.4968 89.1065 36.8917 89.7656 36.4542C90.4247 36.011 91.2514 35.7894 92.2457 35.7894C93.1548 35.7894 93.9474 35.9883 94.6236 36.386C95.3054 36.7781 95.8338 37.3434 96.2088 38.082C96.5895 38.815 96.777 39.6928 96.7713 40.7156V49.0508H93.1406V41.3633C93.1463 40.5565 92.9418 39.9286 92.527 39.4798C92.1179 39.0309 91.544 38.8065 90.8054 38.8065C90.3111 38.8065 89.8736 38.9116 89.4929 39.1218C89.1179 39.332 88.8224 39.6388 88.6065 40.0423C88.3963 40.44 88.2884 40.9201 88.2827 41.4826ZM105.594 49.3065C104.248 49.3065 103.089 49.0337 102.117 48.4883C101.151 47.9371 100.407 47.1587 99.8842 46.1531C99.3615 45.1417 99.1001 43.9457 99.1001 42.565C99.1001 41.2184 99.3615 40.0366 99.8842 39.0195C100.407 38.0025 101.143 37.2099 102.092 36.6417C103.046 36.0735 104.165 35.7894 105.45 35.7894C106.313 35.7894 107.117 35.9286 107.862 36.207C108.612 36.4798 109.265 36.8917 109.822 37.4428C110.384 37.994 110.822 38.6871 111.134 39.5224C111.447 40.3519 111.603 41.3235 111.603 42.4371V43.4343H100.549V41.1843H108.185C108.185 40.6616 108.072 40.1985 107.844 39.7951C107.617 39.3917 107.302 39.0763 106.898 38.8491C106.501 38.6161 106.038 38.4996 105.509 38.4996C104.958 38.4996 104.469 38.6275 104.043 38.8832C103.623 39.1332 103.293 39.4712 103.055 39.8974C102.816 40.3178 102.694 40.7866 102.688 41.3036V43.4428C102.688 44.0906 102.808 44.6502 103.046 45.1218C103.29 45.5934 103.634 45.957 104.077 46.2127C104.521 46.4684 105.046 46.5962 105.654 46.5962C106.058 46.5962 106.427 46.5394 106.762 46.4258C107.097 46.3121 107.384 46.1417 107.623 45.9144C107.862 45.6871 108.043 45.4087 108.168 45.0792L111.526 45.3008C111.356 46.1076 111.006 46.8121 110.478 47.4144C109.955 48.011 109.279 48.4769 108.45 48.8121C107.626 49.1417 106.674 49.3065 105.594 49.3065Z" fill="white"/>
<path d="M28.6045 2.5C31.1988 2.50018 33.2498 4.62073 33.25 7.17188V24.8789H30.75C27.2395 24.8789 23.9397 24.1534 21.4619 22.2764C19.6394 20.8957 18.4316 19.0201 17.875 16.7539C17.3184 19.0201 16.1106 20.8957 14.2881 22.2764C12.6943 23.4837 10.7596 24.2113 8.64844 24.5791C10.8205 25.021 12.7669 25.8758 14.3486 27.1523C16.8232 29.1496 18.2294 32.0411 18.2295 35.4121V46.6016H7.14551C4.55106 46.6014 2.50009 44.481 2.5 41.9297V7.17188C2.50024 4.62074 4.55116 2.50018 7.14551 2.5H28.6045Z" stroke="white" stroke-width="5"/>
</svg>
